<svg width="310" height="97" viewBox="0 0 310 97" fill="none" xmlns="http://www.w3.org/2000/svg">
<circle cx="44.5" cy="73.5" r="17.75" stroke="white" stroke-width="3.5"/>
<line x1="2.34787" y1="8.78262" x2="25.7826" y2="55.6521" stroke="white" stroke-width="3.5" stroke-linecap="round"/>
<line x1="12.3479" y1="1.78262" x2="35.7826" y2="48.6521" stroke="white" stroke-width="3.5" stroke-linecap="round"/>
<line x1="89.7083" y1="10.3713" x2="64.3713" y2="57.2917" stroke="white" stroke-width="3.5" stroke-linecap="round"/>
<line x1="79.7256" y1="3.36611" x2="55.3661" y2="49.2744" stroke="white" stroke-width="3.5" stroke-linecap="round"/>
<path d="M75.556 90.116C74.884 90.116 74.368 89.828 74.008 89.252C73.648 88.676 73.612 88.064 73.9 87.416L84.016 63.26C84.376 62.42 84.964 62 85.78 62C86.644 62 87.232 62.42 87.544 63.26L97.696 87.488C97.96 88.16 97.924 88.772 97.588 89.324C97.276 89.852 96.772 90.116 96.076 90.116C95.716 90.116 95.368 90.02 95.032 89.828C94.72 89.612 94.492 89.324 94.348 88.964L85.924 68.192L77.284 88.964C77.116 89.348 76.864 89.636 76.528 89.828C76.216 90.02 75.892 90.116 75.556 90.116Z" fill="white"/>
<path d="M108.638 90.116C108.11 90.116 107.654 89.936 107.27 89.576C106.886 89.216 106.694 88.772 106.694 88.244V63.872C106.694 63.32 106.886 62.876 107.27 62.54C107.654 62.18 108.11 62 108.638 62C109.19 62 109.622 62.18 109.934 62.54C110.27 62.876 110.438 63.32 110.438 63.872V84.284L127.718 62.684C128.102 62.228 128.582 62 129.158 62C129.71 62 130.154 62.18 130.49 62.54C130.85 62.876 131.03 63.32 131.03 63.872V88.244C131.03 88.772 130.85 89.216 130.49 89.576C130.154 89.936 129.71 90.116 129.158 90.116C128.63 90.116 128.186 89.936 127.826 89.576C127.466 89.216 127.286 88.772 127.286 88.244V67.868L110.078 89.468C109.91 89.66 109.694 89.816 109.43 89.936C109.166 90.056 108.902 90.116 108.638 90.116Z" fill="white"/>
<path d="M144.601 90.116C144.073 90.116 143.629 89.936 143.269 89.576C142.909 89.216 142.729 88.772 142.729 88.244V63.872C142.729 63.32 142.909 62.876 143.269 62.54C143.629 62.18 144.073 62 144.601 62C145.321 62 145.873 62.336 146.257 63.008L156.949 84.428L167.353 63.008C167.737 62.336 168.289 62 169.009 62C169.537 62 169.981 62.18 170.341 62.54C170.701 62.876 170.881 63.32 170.881 63.872V88.244C170.881 88.772 170.689 89.216 170.305 89.576C169.945 89.936 169.513 90.116 169.009 90.116C168.481 90.116 168.037 89.936 167.677 89.576C167.317 89.216 167.137 88.772 167.137 88.244V70.352L158.425 88.1C158.017 88.724 157.477 89.036 156.805 89.036C156.013 89.036 155.437 88.664 155.077 87.92L146.473 70.676V88.244C146.473 88.772 146.293 89.216 145.933 89.576C145.573 89.936 145.129 90.116 144.601 90.116Z" fill="white"/>
<path d="M184.468 90.116C183.94 90.116 183.496 89.936 183.136 89.576C182.776 89.216 182.596 88.772 182.596 88.244V63.872C182.596 63.32 182.776 62.876 183.136 62.54C183.496 62.18 183.94 62 184.468 62H203.62C204.172 62 204.616 62.18 204.952 62.54C205.312 62.876 205.492 63.32 205.492 63.872V88.244C205.492 88.772 205.312 89.216 204.952 89.576C204.616 89.936 204.172 90.116 203.62 90.116C203.092 90.116 202.648 89.936 202.288 89.576C201.928 89.216 201.748 88.772 201.748 88.244V65.312H186.34V88.244C186.34 88.772 186.16 89.216 185.8 89.576C185.464 89.936 185.02 90.116 184.468 90.116Z" fill="white"/>
<path d="M219.134 90.116C218.606 90.116 218.15 89.936 217.766 89.576C217.382 89.216 217.19 88.772 217.19 88.244V63.872C217.19 63.32 217.382 62.876 217.766 62.54C218.15 62.18 218.606 62 219.134 62C219.686 62 220.118 62.18 220.43 62.54C220.766 62.876 220.934 63.32 220.934 63.872V84.284L238.214 62.684C238.598 62.228 239.078 62 239.654 62C240.206 62 240.65 62.18 240.986 62.54C241.346 62.876 241.526 63.32 241.526 63.872V88.244C241.526 88.772 241.346 89.216 240.986 89.576C240.65 89.936 240.206 90.116 239.654 90.116C239.126 90.116 238.682 89.936 238.322 89.576C237.962 89.216 237.782 88.772 237.782 88.244V67.868L220.574 89.468C220.406 89.66 220.19 89.816 219.926 89.936C219.662 90.056 219.398 90.116 219.134 90.116Z" fill="white"/>
<path d="M255.097 90.116C254.569 90.116 254.125 89.936 253.765 89.576C253.405 89.216 253.225 88.772 253.225 88.244V63.872C253.225 63.32 253.405 62.876 253.765 62.54C254.125 62.18 254.569 62 255.097 62H271.369C271.921 62 272.365 62.168 272.701 62.504C273.037 62.816 273.205 63.236 273.205 63.764C273.205 64.268 273.037 64.676 272.701 64.988C272.365 65.3 271.921 65.456 271.369 65.456H256.969V74.204H267.301C267.853 74.204 268.297 74.372 268.633 74.708C268.969 75.02 269.137 75.428 269.137 75.932C269.137 76.436 268.969 76.856 268.633 77.192C268.297 77.504 267.853 77.66 267.301 77.66H256.969V86.66H271.369C271.921 86.66 272.365 86.816 272.701 87.128C273.037 87.44 273.205 87.848 273.205 88.352C273.205 88.88 273.037 89.312 272.701 89.648C272.365 89.96 271.921 90.116 271.369 90.116H255.097Z" fill="white"/>
<path d="M307.7 96.524C307.172 96.524 306.728 96.344 306.368 95.984C306.008 95.624 305.828 95.18 305.828 94.652V90.116H284.804C284.276 90.116 283.832 89.936 283.472 89.576C283.112 89.216 282.932 88.772 282.932 88.244V63.872C282.932 63.32 283.112 62.876 283.472 62.54C283.832 62.18 284.276 62 284.804 62C285.356 62 285.8 62.18 286.136 62.54C286.496 62.876 286.676 63.32 286.676 63.872V86.804H302.084V63.872C302.084 63.32 302.264 62.876 302.624 62.54C302.984 62.18 303.428 62 303.956 62C304.508 62 304.952 62.18 305.288 62.54C305.648 62.876 305.828 63.32 305.828 63.872V86.804H307.7C308.252 86.804 308.696 86.984 309.032 87.344C309.392 87.68 309.572 88.124 309.572 88.676V94.652C309.572 95.18 309.392 95.624 309.032 95.984C308.696 96.344 308.252 96.524 307.7 96.524Z" fill="white"/>
</svg>
