<?xml version="1.0" standalone="no"?>
<!DOCTYPE svg PUBLIC "-//W3C//DTD SVG 20010904//EN"
 "http://www.w3.org/TR/2001/REC-SVG-20010904/DTD/svg10.dtd">
<svg version="1.0" xmlns="http://www.w3.org/2000/svg"
 width="94.000000pt" height="94.000000pt" viewBox="0 0 94.000000 94.000000"
 preserveAspectRatio="xMidYMid meet">
<metadata>
Created by potrace 1.14, written by Peter Selinger 2001-2017
</metadata>
<g transform="translate(0.000000,94.000000) scale(0.100000,-0.100000)"
fill="#000000" stroke="none">
<path d="M127 934 c-3 -4 53 -123 124 -266 84 -169 134 -257 140 -251 6 6 -35
99 -116 261 -69 138 -130 254 -134 256 -5 3 -11 3 -14 0z"/>
<path d="M807 923 c-10 -17 -57 -103 -107 -198 -29 -55 -77 -146 -107 -202
-29 -56 -49 -104 -44 -107 12 -8 21 4 81 119 29 55 71 134 93 175 101 192 109
208 98 215 -5 3 -12 2 -14 -2z"/>
<path d="M27 864 c-6 -6 234 -488 253 -507 4 -5 11 -4 14 1 6 10 -225 474
-248 500 -7 7 -15 9 -19 6z"/>
<path d="M887 818 c-13 -23 -64 -115 -113 -203 -48 -88 -100 -183 -116 -212
-19 -34 -25 -54 -17 -58 14 -9 -11 -49 164 270 48 88 96 175 107 193 14 23 17
37 10 44 -7 7 -18 -4 -35 -34z"/>
<path d="M385 371 c-156 -72 -151 -289 7 -356 96 -40 205 4 249 100 75 162
-94 331 -256 256z m174 -37 c42 -25 80 -101 74 -150 -13 -123 -138 -192 -244
-137 -146 77 -108 287 56 316 29 5 78 -8 114 -29z"/>
</g>
</svg>
